<?xml version="1.0" encoding="utf-8"?>
<!-- Generator: Adobe Illustrator 24.1.1, SVG Export Plug-In . SVG Version: 6.00 Build 0)  -->
<svg version="1.1" id="شعار_الشيخ" xmlns="http://www.w3.org/2000/svg" xmlns:xlink="http://www.w3.org/1999/xlink"
	 x="0px" y="0px" viewBox="0 0 283.46 283.46" style="enable-background:new 0 0 283.46 283.46;" xml:space="preserve">
<style type="text/css">
	.st0{fill:#1D5E69;}
</style>
<path class="st0" d="M174.55,165.06c-2.62-0.53-5.35-0.98-8.03-1.64c-6.98-1.71-13.37-4.58-18.04-10.29c-1.64-2-2.94-4.32-4.17-6.61
	c-0.61-1.13-1.38-1.56-2.41-1.21c-1.5,0.51-3.12,1-4.3,1.98c-2.13,1.75-4.07,3.77-5.9,5.84c-3.08,3.5-3.68,7.59-2.32,12
	c0.31,1.02,0.63,2.04,1.03,3.03c0.9,2.23,0.64,3.31-1.5,4.43c-1.55,0.81-3.23,1.38-4.91,1.9c-0.36,0.11-1.2-0.38-1.35-0.77
	c-0.32-0.83-0.41-1.77-0.46-2.67c-0.75-14.89,4.49-27.51,14.71-38.14c2.35-2.45,5.27-4.11,8.71-4.8c1.8-0.36,3.21,0.08,4.28,1.44
	c0.88,1.13,1.76,2.34,2.27,3.65c3.34,8.63,10.09,12.52,18.78,14c8.09,1.38,16.25,1.59,24.42,1.9c7.42,0.28,14.83,0.71,22.03,2.83
	c9.11,2.68,16.62,7.64,22.2,15.42c2.48,3.46,3.27,7.44,4.05,11.5c1.41,7.25-0.35,14.21-1.43,21.28
	c-2.6,17.03-10.88,31.11-22.39,43.47c-14.94,16.05-32.7,27.73-54.02,33.51c-12.08,3.27-24.23,3.81-36.34-0.08
	c-0.95-0.3-1.87-0.67-3.28-1.18c1.69-0.82,2.93-1.54,4.25-2.05c15.35-5.83,30.38-12.55,46.32-16.79
	c13.23-3.52,24.4-10.9,34.76-19.59c7.91-6.63,14.99-14.01,20.37-22.89c3.13-5.16,5.46-10.62,6.09-16.71
	c0.46-4.41-0.49-8.54-2.6-12.35c-5.63-10.19-14.04-16.57-25.79-17.82c-7.38-0.79-14.8-1.12-22.21-1.65
	c-3.99-0.29-7.98-0.56-12.23-0.86c0.37,0.59,0.65,1.07,0.97,1.53c3.77,5.45,7.59,10.86,11.27,16.37c1.05,1.58,1.78,3.39,2.47,5.17
	c0.22,0.56-0.19,1.36-0.31,2.05c-0.57-0.19-1.17-0.32-1.69-0.6c-0.89-0.49-1.68-1.15-2.57-1.62c-1.52-0.8-2.2-0.52-2.12,1.15
	c0.13,2.54,0.38,5.13,1,7.58c1.44,5.69,3.17,11.3,4.7,16.96c1.01,3.71,1.25,7.43,0.03,11.2c-0.71,2.17-1.21,4.43-1.59,6.69
	c-0.39,2.3-1.48,4.18-2.87,5.98c-3.99,5.19-8.87,9.39-14.24,13.05c-8.15,5.56-16.99,9.84-25.93,13.93
	c-10.39,4.74-20.71,9.68-31.72,12.87c-12.24,3.55-24.64,4.45-37.23,1.9c-15.78-3.2-26.21-12.63-31.8-27.47
	c-5.28-14.01-5.51-28.25-1.2-42.6c2.24-7.47,4.43-14.95,7.93-21.95c1.26-2.52,2.82-4.9,4.3-7.31c0.49-0.8,1.17-1.49,2.09-2.09
	c-0.58,2.55-1.15,5.11-1.75,7.66c-2.62,11.22-5.3,22.43-7.86,33.67c-1.03,4.49-0.39,8.96,0.94,13.28
	c3.61,11.72,10.17,21.27,21.14,27.25c7.39,4.03,15.49,4.96,23.78,4.55c13.95-0.7,27.08-4.82,39.92-9.9
	c11.76-4.65,23.53-9.35,34.43-15.87c3.47-2.08,6.74-4.5,10.03-6.88c1.06-0.77,1.92-1.85,2.79-2.86c1.11-1.31,1.3-2.76,0.88-4.48
	c-2.45-10.17-4.75-20.37-7.21-30.53c-1.03-4.24-2-8.54-4.46-12.27c-0.6-0.9-0.6-1.75-0.22-2.7
	C170.86,174.32,172.67,169.77,174.55,165.06z"/>
<path class="st0" d="M62.93,8.08c0.72,2.65,1.13,5.21,2.09,7.55c2.68,6.49,3.58,13.36,4.66,20.2c0.92,5.85,1.94,11.68,2.67,17.55
	c0.78,6.3,1.31,12.64,1.87,18.97c0.85,9.74,1.71,19.48,2.42,29.22c0.5,6.87,0.84,13.76,1.1,20.65c0.41,10.79,0.58,21.59,1.05,32.37
	c0.32,7.31,1.21,14.57,3.49,21.6c3,9.21,9.14,12.1,18.4,10.85c7.18-0.97,13.62-4.2,20.2-6.99c7.01-2.98,14.05-5.93,21.17-8.63
	c3.62-1.37,7.52-1.7,11.38-1.01c6.55,1.18,10.41,5.63,12.43,11.5c3.07,8.91,1.74,17.46-3.86,25.07c-3.93,5.34-9.62,6.72-16.02,4.39
	c-4.74-1.73-8.66-4.64-11.68-8.66c-1.53-2.04-2.75-4.32-4.12-6.48c-0.59-0.94-0.56-1.68,0.6-2.14c0.39-0.16,0.75-0.41,1.13-0.6
	c3.99-2.04,4.73-1.65,8.31,1c3.79,2.81,7.85,5.37,12.09,7.43c4.5,2.2,7.98-0.29,7.96-5.35c-0.01-1.94-0.42-3.92-0.96-5.8
	c-0.64-2.2-2.36-3.36-4.63-3.62c-7.48-0.86-14.73,0.03-21.62,3.1c-8.33,3.7-16.63,7.51-24.93,11.28c-7.24,3.29-14.62,3.24-22,0.67
	c-3.73-1.29-6.38-3.93-8.1-7.56c-4-8.45-6.36-17.36-7.21-26.61c-0.89-9.73-1.32-19.51-2.01-29.26c-0.51-7.25-1.17-14.48-1.66-21.73
	c-0.56-8.42-1.05-16.85-1.49-25.28c-0.94-18.04-2.41-36-6.5-53.66c-1.08-4.66-1.64-9.46-2.1-14.23c-0.18-1.88,0.25-3.99,0.97-5.75
	C59.45,14.68,61.28,11.42,62.93,8.08z"/>
<path class="st0" d="M164.95,54.56c-1.93-0.35-3.94-0.46-5.77-1.11c-7.6-2.67-15.39-3.4-23.36-2.65
	c-11.36,1.07-22.28,3.81-32.61,8.73c-3.97,1.89-7.62,4.27-10.85,7.31c-1.84,1.74-2.2,3.69-1.53,5.96c1.34,4.57,3.69,8.67,6.45,12.46
	c8.08,11.09,18.85,18.29,32.27,21.32c5.5,1.24,10.82-0.03,15.99-1.91c8.36-3.04,15.72-7.89,23.02-12.85
	c6.58-4.48,13.13-9.01,19.7-13.49c1.1-0.75,2.27-1.41,3.46-2.01c1.26-0.64,1.91-0.25,2.06,1.15c0.05,0.42-0.01,0.85-0.08,1.27
	c-1.12,6.87-4.33,12.52-9.69,17c-4.21,3.52-8.92,6.2-13.78,8.7c-21.4,10.99-39.85,25.63-54.76,44.58
	c-7.77,9.89-14.08,20.62-18.43,32.47c-0.69,1.87-1.3,2.14-3.14,1.47c-2.58-0.93-2.86-1.4-2.09-4.12
	c2.62-9.26,6.45-18.02,11.66-26.08c6.08-9.42,12.5-18.62,18.79-27.91c1.08-1.6,1.18-1.87-0.48-2.88c-2.41-1.47-4.83-3.02-7.44-4.05
	c-8.52-3.36-14.99-9.27-20.87-16.03c-4.51-5.19-8.23-10.82-9.64-17.66c-2.58-12.55-0.94-24.06,8.86-33.33
	c5.44-5.15,12-8.26,19.16-10.21c13.61-3.7,26.61-1.66,39.3,3.99c5.05,2.25,9.29,5.64,13.6,8.97c0.15,0.12,0.25,0.3,0.38,0.46
	C165.06,54.27,165.01,54.42,164.95,54.56z"/>
<path class="st0" d="M93.85,206.84c-0.79,21.5,7.65,37.95,26.56,49.12c-2.95,0.9-5.52,1.85-8.17,2.44c-3.21,0.72-6.5,1.13-9.75,1.67
	c-1.09,0.18-1.7-0.33-2.29-1.26c-7.03-11.22-11.65-23.28-12.61-36.56c-0.35-4.83-0.09-9.71-0.13-14.57
	c-0.01-0.8,0.29-1.18,1.13-1.13C90.28,206.66,91.98,206.74,93.85,206.84z"/>
<path class="st0" d="M134.83,237.07c-5.1-3.93-10.02-7.69-14.87-11.53c-0.35-0.28-0.52-1.35-0.28-1.72
	c2.49-3.8,5.04-7.55,7.69-11.24c0.3-0.41,1.57-0.65,1.99-0.37c4.69,3.17,9.28,6.48,13.93,9.71c1.12,0.78,1.43,1.52,0.56,2.74
	c-2.44,3.44-4.78,6.95-7.19,10.4C136.18,235.75,135.52,236.32,134.83,237.07z"/>
<path class="st0" d="M231.34,139.13c-4.95-3.83-9.87-7.59-14.71-11.45c-0.36-0.29-0.48-1.45-0.2-1.87
	c2.43-3.71,4.93-7.37,7.53-10.96c0.31-0.42,1.57-0.69,1.97-0.42c4.74,3.19,9.4,6.5,14.07,9.79c0.72,0.5,1.4,1.04,0.68,2.08
	c-2.75,3.94-5.47,7.89-8.23,11.83C232.2,138.49,231.77,138.75,231.34,139.13z"/>
<path class="st0" d="M204.46,141.41c-5.02-3.88-9.82-7.61-14.65-11.31c-0.89-0.68-0.89-1.34-0.31-2.18
	c2.48-3.6,4.95-7.22,7.43-10.82c0.59-0.85,1.3-1.02,2.18-0.4c4.54,3.18,9.08,6.38,13.65,9.53c1.24,0.85,1.56,1.65,0.62,2.98
	c-2.42,3.39-4.72,6.85-7.11,10.26C205.78,140.14,205.12,140.7,204.46,141.41z"/>
<path class="st0" d="M213.45,119.52c-5.02-3.86-9.94-7.62-14.79-11.45c-0.34-0.27-0.48-1.36-0.23-1.75
	c2.45-3.75,4.97-7.46,7.59-11.1c0.29-0.4,1.56-0.61,1.98-0.32c4.6,3.1,9.1,6.36,13.68,9.49c1.36,0.93,1.47,1.8,0.55,3.11
	c-2.35,3.3-4.6,6.67-6.94,9.99C214.79,118.2,214.11,118.8,213.45,119.52z"/>
<path class="st0" d="M195.76,52.11c-1.53-1.68-2.96-3.25-4.45-4.88c-0.33,0.38-0.53,0.56-0.66,0.78
	c-6.96,11.23-16.51,19.62-28.13,25.77c-5.64,2.98-11.23,6.07-17.02,8.85c1.45-1.12,2.84-2.34,4.37-3.33
	c13.19-8.6,25.74-17.99,36.66-29.43c1.02-1.07,2.01-2.18,3.14-3.4c-0.65-0.32-1.12-0.54-1.58-0.77c-2.08-1.05-3.67-2.56-4.44-4.82
	c-0.51-1.48-0.48-2.93,0.37-4.3c0.81-1.32,1.6-2.65,2.41-3.97c0.14-0.23,0.3-0.45,0.46-0.66c1.38-1.77,3.77-2.82,5.27-2.31
	c1.8,0.61,3.43,2.77,3.31,5.03c-0.13,2.37-0.57,4.74-1.07,7.07c-0.22,1-0.23,1.55,0.64,2.28C197.5,46.07,197.88,49.65,195.76,52.11z
	 M189.02,34.31c-0.49,0.19-1.23,0.36-1.84,0.74c-1.79,1.11-1.88,1.77-0.34,3.15c1.18,1.06,2.53,1.94,3.75,2.96
	c1.1,0.91,1.67,0.43,2.1-0.66c0.67-1.69-1.09-5.54-2.79-6.07C189.69,34.38,189.47,34.38,189.02,34.31z"/>
<path class="st0" d="M80.2,40.39c-0.6-2.66-0.12-4.5,2.23-6.12c9.79-6.74,20.21-12.32,30.87-17.5c9.21-4.48,18.37-9.04,27.55-13.57
	c0.37-0.18,0.77-0.32,1.36-0.56c-0.53,2.03-1.09,3.59-3.08,4.61c-9.93,5.06-19.77,10.3-29.66,15.45
	c-9.91,5.15-19.4,10.98-28.6,17.31C80.72,40.11,80.53,40.2,80.2,40.39z"/>
<path class="st0" d="M62.44,122.09c-0.28-0.39-0.47-0.87-0.83-1.12c-0.8-0.55-1.67-1.34-2.52-1.33c-0.6,0-1.52,1.05-1.72,1.79
	c-1.1,4.05-1.96,8.18-3.04,12.24c-0.43,1.6-1.21,3.11-1.9,4.64c-0.12,0.26-0.58,0.37-1.06,0.66c-0.06-5-2.58-8.99-4.38-13.22
	c-0.45-1.06-0.97-1.88-2.35-0.82c-1.13,0.86-2.27,0.29-3.12-0.66c-0.97-1.09-1.85-2.3-1.07-3.85c0.4-0.8,1.11-1.45,1.51-2.26
	c0.75-1.55,1.89-1.58,3.14-0.85c0.9,0.53,1.89,1.14,2.44,1.98c2.28,3.44,4.29,7.03,4.55,11.3c0.02,0.26,0.09,0.52,0.22,1.23
	c0.42-0.58,0.75-0.84,0.83-1.17c1-4.11,1.94-8.24,2.98-12.34c0.17-0.69,0.71-1.32,1.16-1.9c2.06-2.61,5.61-2.04,6.87,1.09
	C64.64,118.73,63.94,120.74,62.44,122.09z"/>
<path class="st0" d="M56.14,147.8c0.08,0.46,0.24,0.93,0.2,1.38c-0.04,0.46-0.28,0.91-0.44,1.36c-0.97,2.72-0.97,2.72,1.59,4.14
	c3.69,2.05,5.13,4.69,4.54,8.29c-0.53,3.22-3.1,5.66-6.74,6.41c-2.5,0.51-4.46-0.54-5.32-2.94c-0.88-2.45-0.94-4.99,0.13-7.34
	c1.74-3.81,3.73-7.52,5.62-11.27C55.86,147.83,56,147.82,56.14,147.8z M53.18,157.79c-1.87,2.55-1.47,6.06,0.63,6.48
	c1.69,0.33,3.57-0.01,5.32-0.31c0.93-0.15,1.12-1.05,0.3-1.67C57.4,160.76,55.31,159.31,53.18,157.79z"/>
<path class="st0" d="M225.57,59.01c0.07,0.44,0.22,0.88,0.18,1.3c-0.05,0.46-0.3,0.9-0.46,1.36c-0.96,2.72-0.96,2.72,1.62,4.15
	c3.77,2.1,5.13,4.68,4.47,8.45c-0.56,3.15-3.25,5.55-6.93,6.17c-2.78,0.47-4.93-1.13-5.32-4.37c-0.21-1.8-0.25-3.87,0.42-5.49
	c1.63-3.96,3.72-7.74,5.63-11.59C225.3,59.01,225.44,59.01,225.57,59.01z M225.23,75.85c1.09-0.21,2.22-0.32,3.27-0.66
	c1.07-0.35,1.32-1.16,0.33-1.89c-1.8-1.33-3.66-2.58-5.5-3.84c-0.75-0.51-1.21-0.25-1.61,0.55
	C220.26,72.95,221.92,75.69,225.23,75.85z"/>
<path class="st0" d="M49.81,111.17c-0.14-1.94-0.17-3.9-0.45-5.82c-0.75-5.27-1.67-10.52-2.4-15.8c-0.22-1.62-0.24-3.31-0.03-4.93
	c0.3-2.28,2.16-3.29,4.06-4.13c0.47-0.21,0.96-0.35,1.44-0.53c0.03-0.17,0.06-0.33,0.1-0.5c-0.87-0.28-1.85-0.96-2.57-0.74
	c-0.76,0.23-1.25,1.31-1.86,2.02c-0.18-0.07-0.36-0.14-0.55-0.21c0.41-1.59,0.6-3.28,1.3-4.73c0.93-1.94,2.61-2.11,4.31-0.75
	c1.04,0.83,2.17,1.56,3.15,2.46c1.85,1.69,1.65,4.11-0.48,5.47c-0.69,0.44-1.58,0.57-2.38,0.86c-1.53,0.56-3.08,1.07-4.58,1.7
	c-1.02,0.43-1.22,1.21-0.92,2.35c0.98,3.76,2.05,7.52,2.66,11.35c0.63,3.95,0.31,7.97-0.4,11.91
	C50.08,111.16,49.94,111.16,49.81,111.17z"/>
<path class="st0" d="M215.94,202.72c0.24,0.63,0.43,0.96,0.48,1.31c0.24,1.72-2.71,6.1-4.4,6.57c-2.15,0.6-3.67-0.25-4.26-2.43
	c-0.71-2.62-0.53-5.29,0.57-7.68c1.91-4.14,4.14-8.12,6.23-12.17c0.2,0.08,0.4,0.17,0.61,0.25c-0.16,0.55-0.26,1.12-0.48,1.64
	c-1.27,3.05-2.58,6.08-3.84,9.12c-0.68,1.64-0.72,3.31-0.01,4.98c0.83,1.96,2.26,2.17,3.62,0.49
	C214.9,204.23,215.31,203.61,215.94,202.72z"/>
</svg>
